<svg id="Icons" enable-background="new 0 0 64 64" height="512" viewBox="0 0 64 64" width="512" xmlns="http://www.w3.org/2000/svg"><g><g><path d="m59 16h-54c-.552 0-1 .448-1 1v30c0 .552.448 1 1 1h21l6 8 6-8h21c.552 0 1-.448 1-1v-30c0-.552-.448-1-1-1z" fill="#f0f0f0"/></g><g><path d="m6 47v-30c0-.552.448-1 1-1h-2c-.552 0-1 .448-1 1v30c0 .552.448 1 1 1h2c-.552 0-1-.448-1-1z" fill="#d2d2d2"/></g><g><path d="m36 32h20v2h-20z" fill="#d2d2d2"/></g><g><path d="m36 28h20v2h-20z" fill="#d2d2d2"/></g><g><path d="m36 36h20v2h-20z" fill="#d2d2d2"/></g><g><path d="m36 40h8.571v2h-8.571z" fill="#d2d2d2"/></g><g><g><path d="m32 42h-24v-5.107c0-.758.428-1.45 1.106-1.789l6.894-3.104 4 4 4-4 6.894 3.104c.678.339 1.106 1.031 1.106 1.789z" fill="#64c8f0"/></g><g><path d="m13.106 35.104 4.136-1.862-1.242-1.242-6.894 3.104c-.678.339-1.106 1.031-1.106 1.789v5.107h4v-5.107c0-.758.428-1.45 1.106-1.789z" fill="#46aad2"/></g><g><path d="m16 32v-4.343h8v4.343l-4 4z" fill="#d2aa82"/></g><g><path d="m30 18h-2v-6c0-1.105-.895-2-2-2h-12c-1.105 0-2 .895-2 2v6h-2c-1.105 0-2 .895-2 2v.764c0 .758.428 1.45 1.106 1.789l2.894 1.447v.343c0 1.061.421 2.078 1.172 2.828l1.657 1.657c.75.75 1.768 1.172 2.828 1.172h4.686c1.061 0 2.078-.421 2.828-1.172l1.657-1.657c.75-.75 1.172-1.768 1.172-2.828v-.343l2.894-1.447c.678-.339 1.106-1.032 1.106-1.789v-.764c0-1.105-.895-2-2-2z" fill="#f0c8a0"/></g><g><path d="m30 20c-2.209 0-4-1.791-4-4v-6h2c1.105 0 2 .895 2 2z" fill="#dc9600"/></g><g><path d="m24 6h-8c-3.314 0-6 2.686-6 6v4c0 1.105.895 2 2 2h5.029c3.183 0 6.235-1.264 8.485-3.515l1.314-1.314c.75-.75 1.172-1.768 1.172-2.828v-.343c0-2.209-1.791-4-4-4z" fill="#fab400"/></g><g><path d="m18 20.5h-4c-.276 0-.5-.224-.5-.5s.224-.5.5-.5h4c.276 0 .5.224.5.5s-.224.5-.5.5z" fill="#be7800"/></g><g><path d="m20 26.5c-.668 0-1.296-.26-1.768-.732l-.586-.585c-.195-.195-.195-.512 0-.707s.512-.195.707 0l.586.585c.566.566 1.555.566 2.121 0l.586-.585c.195-.195.512-.195.707 0s.195.512 0 .707l-.586.585c-.471.472-1.099.732-1.767.732z" fill="#be7800"/></g><g><circle cx="17" cy="21" fill="#be7800" r="1"/></g><g><path d="m26 20.5h-4c-.276 0-.5-.224-.5-.5s.224-.5.5-.5h4c.276 0 .5.224.5.5s-.224.5-.5.5z" fill="#be7800"/></g><g><circle cx="23" cy="21" fill="#be7800" r="1"/></g></g><g><path d="m38 18 1.236 2.633 2.764.423-2 2.05.472 2.894-2.472-1.367-2.472 1.367.472-2.894-2-2.05 2.764-.423z" fill="#fab400"/></g><g><path d="m46 18 1.236 2.633 2.764.423-2 2.05.472 2.894-2.472-1.367-2.472 1.367.472-2.894-2-2.05 2.764-.423z" fill="#fab400"/></g><g><path d="m54 18 1.236 2.633 2.764.423-2 2.05.472 2.894-2.472-1.367-2.472 1.367.472-2.894-2-2.05 2.764-.423z" fill="#fab400"/></g></g></svg>